<svg width="131" height="130" viewBox="0 0 131 130" fill="none" xmlns="http://www.w3.org/2000/svg">
<path d="M81.75 43.3335H81.8042" stroke="#151515" stroke-width="3" stroke-linecap="round" stroke-linejoin="round"/>
<path d="M16.75 32.5C16.75 28.1902 18.462 24.057 21.5095 21.0095C24.557 17.962 28.6902 16.25 33 16.25H98C102.31 16.25 106.443 17.962 109.49 21.0095C112.538 24.057 114.25 28.1902 114.25 32.5V97.5C114.25 101.81 112.538 105.943 109.49 108.99C106.443 112.038 102.31 113.75 98 113.75H33C28.6902 113.75 24.557 112.038 21.5095 108.99C18.462 105.943 16.75 101.81 16.75 97.5V32.5Z" stroke="#151515" stroke-width="3" stroke-linecap="round" stroke-linejoin="round"/>
<path d="M16.75 86.6657L43.8333 59.5824C48.86 54.7453 55.0567 54.7453 60.0833 59.5824L87.1667 86.6657" stroke="#151515" stroke-width="3" stroke-linecap="round" stroke-linejoin="round"/>
<path d="M76.3333 75.8326L81.75 70.4159C86.7767 65.5788 92.9733 65.5788 98 70.4159L114.25 86.6659" stroke="#151515" stroke-width="3" stroke-linecap="round" stroke-linejoin="round"/>
</svg>
