<svg width="101" height="100" viewBox="0 0 101 100" fill="none" xmlns="http://www.w3.org/2000/svg">
<path d="M46.6415 10.971C47.9748 7.45433 53.0207 7.45433 54.3582 10.971L62.9832 34.8627C63.5873 36.446 65.1248 37.5002 66.8415 37.5002H88.0373C91.954 37.5002 93.6623 42.3752 90.5832 44.7627L75.4998 58.3335C74.8242 58.8529 74.3304 59.573 74.0894 60.3904C73.8483 61.2078 73.8724 62.0806 74.1582 62.8835L79.6665 86.2293C81.0082 89.9793 76.6665 93.2002 73.3832 90.8918L52.8957 77.8918C52.194 77.3987 51.3574 77.1341 50.4998 77.1341C49.6423 77.1341 48.8056 77.3987 48.104 77.8918L27.6165 90.8918C24.3373 93.2002 19.9915 89.9752 21.3332 86.2293L26.8415 62.8835C27.1272 62.0806 27.1513 61.2078 26.9103 60.3904C26.6692 59.573 26.1755 58.8529 25.4998 58.3335L10.4165 44.7627C7.33316 42.3752 9.04983 37.5002 12.9582 37.5002H34.154C34.9885 37.5029 35.8043 37.2523 36.4932 36.7813C37.1822 36.3103 37.7119 35.6413 38.0123 34.8627L46.6373 10.971H46.6415Z" stroke="#151515" stroke-width="2" stroke-linecap="round" stroke-linejoin="round"/>
</svg>
