<svg width="104" height="36" viewBox="0 0 104 36" fill="none" xmlns="http://www.w3.org/2000/svg">
<path d="M3.48 6L0.5 9V30H21.5L24.5 27.02V6H3.48ZM21.08 26.56H3.94V26.4C3.98 21.74 5.9 17.5 8.98 14.44C12.06 11.36 16.24 9.46 20.92 9.4H21.1V26.54L21.08 26.56Z" fill="#151515"/>
<path d="M41.036 23.792H46.676V26H38.3V9.32H41.036V23.792ZM56.5721 26.168C55.0201 26.168 53.5881 25.808 52.2761 25.088C50.9801 24.352 49.9481 23.336 49.1801 22.04C48.4281 20.728 48.0521 19.256 48.0521 17.624C48.0521 15.992 48.4281 14.528 49.1801 13.232C49.9481 11.936 50.9801 10.928 52.2761 10.208C53.5881 9.472 55.0201 9.104 56.5721 9.104C58.1401 9.104 59.5721 9.472 60.8681 10.208C62.1801 10.928 63.2121 11.936 63.9641 13.232C64.7161 14.528 65.0921 15.992 65.0921 17.624C65.0921 19.256 64.7161 20.728 63.9641 22.04C63.2121 23.336 62.1801 24.352 60.8681 25.088C59.5721 25.808 58.1401 26.168 56.5721 26.168ZM56.5721 23.792C57.6761 23.792 58.6601 23.544 59.5241 23.048C60.3881 22.536 61.0601 21.816 61.5401 20.888C62.0361 19.944 62.2841 18.856 62.2841 17.624C62.2841 16.392 62.0361 15.312 61.5401 14.384C61.0601 13.456 60.3881 12.744 59.5241 12.248C58.6601 11.752 57.6761 11.504 56.5721 11.504C55.4681 11.504 54.4841 11.752 53.6201 12.248C52.7561 12.744 52.0761 13.456 51.5801 14.384C51.1001 15.312 50.8601 16.392 50.8601 17.624C50.8601 18.856 51.1001 19.944 51.5801 20.888C52.0761 21.816 52.7561 22.536 53.6201 23.048C54.4841 23.544 55.4681 23.792 56.5721 23.792ZM79.8564 14.12C79.4244 13.288 78.8244 12.664 78.0564 12.248C77.2884 11.816 76.4004 11.6 75.3924 11.6C74.2884 11.6 73.3044 11.848 72.4404 12.344C71.5764 12.84 70.8964 13.544 70.4004 14.456C69.9204 15.368 69.6804 16.424 69.6804 17.624C69.6804 18.824 69.9204 19.888 70.4004 20.816C70.8964 21.728 71.5764 22.432 72.4404 22.928C73.3044 23.424 74.2884 23.672 75.3924 23.672C76.8804 23.672 78.0884 23.256 79.0164 22.424C79.9444 21.592 80.5124 20.464 80.7204 19.04H74.4564V16.856H83.6484V18.992C83.4724 20.288 83.0084 21.48 82.2564 22.568C81.5204 23.656 80.5524 24.528 79.3524 25.184C78.1684 25.824 76.8484 26.144 75.3924 26.144C73.8244 26.144 72.3924 25.784 71.0964 25.064C69.8004 24.328 68.7684 23.312 68.0004 22.016C67.2484 20.72 66.8724 19.256 66.8724 17.624C66.8724 15.992 67.2484 14.528 68.0004 13.232C68.7684 11.936 69.8004 10.928 71.0964 10.208C72.4084 9.472 73.8404 9.104 75.3924 9.104C77.1684 9.104 78.7444 9.544 80.1204 10.424C81.5124 11.288 82.5204 12.52 83.1444 14.12H79.8564ZM93.9549 26.168C92.4029 26.168 90.9709 25.808 89.6589 25.088C88.3629 24.352 87.3309 23.336 86.5629 22.04C85.8109 20.728 85.4349 19.256 85.4349 17.624C85.4349 15.992 85.8109 14.528 86.5629 13.232C87.3309 11.936 88.3629 10.928 89.6589 10.208C90.9709 9.472 92.4029 9.104 93.9549 9.104C95.5229 9.104 96.9549 9.472 98.2509 10.208C99.5629 10.928 100.595 11.936 101.347 13.232C102.099 14.528 102.475 15.992 102.475 17.624C102.475 19.256 102.099 20.728 101.347 22.04C100.595 23.336 99.5629 24.352 98.2509 25.088C96.9549 25.808 95.5229 26.168 93.9549 26.168ZM93.9549 23.792C95.0589 23.792 96.0429 23.544 96.9069 23.048C97.7709 22.536 98.4429 21.816 98.9229 20.888C99.4189 19.944 99.6669 18.856 99.6669 17.624C99.6669 16.392 99.4189 15.312 98.9229 14.384C98.4429 13.456 97.7709 12.744 96.9069 12.248C96.0429 11.752 95.0589 11.504 93.9549 11.504C92.8509 11.504 91.8669 11.752 91.0029 12.248C90.1389 12.744 89.4589 13.456 88.9629 14.384C88.4829 15.312 88.2429 16.392 88.2429 17.624C88.2429 18.856 88.4829 19.944 88.9629 20.888C89.4589 21.816 90.1389 22.536 91.0029 23.048C91.8669 23.544 92.8509 23.792 93.9549 23.792Z" fill="#151515"/>
</svg>
